<?xml version="1.0" encoding="utf-8"?>
<!-- Generator: Adobe Illustrator 21.0.0, SVG Export Plug-In . SVG Version: 6.00 Build 0)  -->
<svg version="1.1" id="Layer_1" xmlns="http://www.w3.org/2000/svg" xmlns:xlink="http://www.w3.org/1999/xlink" x="0px" y="0px"
	 viewBox="0 0 304 330" style="enable-background:new 0 0 304 330;" xml:space="preserve">
<style type="text/css">
	.st0{fill:#FFFFFF;}
</style>
<g>
	<g>
		<polygon class="st0" points="152,24.4 277.9,73.9 293.6,64.3 152,8.7 10.4,64.3 26.1,73.9 		"/>
		<polygon class="st0" points="36.5,196.6 23.9,77.5 8.2,67.9 27,246.1 149.9,321.3 149.9,304.2 40.7,237.4 		"/>
		<polygon class="st0" points="280.1,77.5 266.4,207.8 263.3,237.4 154.1,304.2 154.1,321.3 277,246.1 295.8,67.9 		"/>
	</g>
	<g>
		<g>
			<path class="st0" d="M127.2,110.9h16.4v67.4h-16.4l-27.4-42.4v42.4H83.4v-67.4h16.4l27.4,42.4V110.9z"/>
			<path class="st0" d="M164,169.1c-6.7-6.5-10-14.7-10-24.7c0-10,3.3-18.2,10-24.7c6.7-6.5,14.8-9.7,24.5-9.7
				c7.5,0,14.1,2,19.9,5.9c5.8,4,9.9,9.4,12.2,16.5H201c-2.6-4.9-6.6-7.4-12.3-7.4c-5.6,0-10,1.8-13.3,5.3
				c-3.2,3.5-4.8,8.2-4.8,14.1c0,5.9,1.6,10.6,4.8,14.1c3.2,3.5,7.5,5.3,13,5.3c3.9,0,7.1-1,9.5-2.9c2.5-1.9,4.1-4.6,4.9-7.8h-19
				v-12.5h36.6v12.5c-1.2,6.1-4.6,11.8-10.1,17.1c-2.6,2.6-5.9,4.6-9.7,6.2c-3.9,1.6-8,2.4-12.3,2.4
				C178.8,178.9,170.7,175.6,164,169.1z"/>
		</g>
		<g>
			<path class="st0" d="M85.7,199.5c-1.5-1.5-2.3-3.3-2.3-5.6c0-2.3,0.8-4.1,2.3-5.6c1.5-1.5,3.4-2.2,5.5-2.2c1.7,0,3.2,0.4,4.5,1.3
				c1.3,0.9,2.2,2.1,2.8,3.7h-4.4c-0.6-1.1-1.5-1.7-2.8-1.7c-1.3,0-2.3,0.4-3,1.2c-0.7,0.8-1.1,1.9-1.1,3.2c0,1.3,0.4,2.4,1.1,3.2
				c0.7,0.8,1.7,1.2,3,1.2c1.3,0,2.2-0.6,2.8-1.7h4.4c-0.5,1.6-1.4,2.8-2.8,3.7c-1.3,0.9-2.8,1.3-4.5,1.3
				C89,201.7,87.2,201,85.7,199.5z"/>
			<path class="st0" d="M105,199.5c-1.5-1.5-2.3-3.3-2.3-5.6c0-2.3,0.8-4.1,2.3-5.6c1.5-1.5,3.4-2.2,5.5-2.2c2.2,0,4,0.7,5.5,2.2
				c1.5,1.5,2.2,3.3,2.2,5.6c0,2.3-0.8,4.1-2.3,5.6c-1.5,1.5-3.3,2.2-5.5,2.2S106.5,201,105,199.5z M113.5,197.1
				c0.7-0.8,1.1-1.9,1.1-3.2c0-1.3-0.4-2.4-1.1-3.2c-0.7-0.8-1.7-1.2-2.9-1.2s-2.2,0.4-2.9,1.2c-0.7,0.8-1.1,1.9-1.1,3.2
				c0,1.3,0.4,2.4,1.1,3.2c0.7,0.8,1.7,1.2,2.9,1.2S112.8,197.9,113.5,197.1z"/>
			<path class="st0" d="M123.5,186.4h3.7v12.4h4.6v2.8h-8.3V186.4z"/>
			<path class="st0" d="M138.1,199.5c-1.5-1.5-2.3-3.3-2.3-5.6c0-2.3,0.8-4.1,2.3-5.6c1.5-1.5,3.4-2.2,5.5-2.2c2.2,0,4,0.7,5.5,2.2
				c1.5,1.5,2.2,3.3,2.2,5.6c0,2.3-0.8,4.1-2.3,5.6c-1.5,1.5-3.3,2.2-5.5,2.2S139.6,201,138.1,199.5z M146.5,197.1
				c0.7-0.8,1.1-1.9,1.1-3.2c0-1.3-0.4-2.4-1.1-3.2c-0.7-0.8-1.7-1.2-2.9-1.2s-2.2,0.4-2.9,1.2c-0.7,0.8-1.1,1.9-1.1,3.2
				c0,1.3,0.4,2.4,1.1,3.2c0.7,0.8,1.7,1.2,2.9,1.2S145.8,197.9,146.5,197.1z"/>
			<path class="st0" d="M173.8,186.4v15.2h-3.7V193l-3.5,8.6h-2.8l-3.5-8.6v8.6h-3.7v-15.2h4.2l4.4,10.5l4.4-10.5H173.8z"/>
			<path class="st0" d="M179.8,186.4h6.6c1.5,0,2.8,0.4,3.7,1.1c0.9,0.8,1.4,1.7,1.4,2.9c0,1.7-1,2.9-3,3.5c1,0.1,1.8,0.6,2.4,1.3
				c0.6,0.7,0.9,1.5,0.9,2.5c0,1.2-0.4,2.2-1.3,2.9c-0.9,0.7-2.1,1.1-3.7,1.1h-7V186.4z M183.5,189.2v3.3h2.4c0.5,0,1-0.1,1.3-0.4
				c0.3-0.3,0.5-0.7,0.5-1.2s-0.2-1-0.5-1.2c-0.3-0.3-0.8-0.4-1.3-0.4H183.5z M183.5,198.8h2.8c0.5,0,0.9-0.2,1.3-0.5
				c0.3-0.3,0.5-0.7,0.5-1.3c0-0.5-0.2-1-0.5-1.3c-0.3-0.3-0.7-0.5-1.2-0.5h-2.8V198.8z"/>
			<path class="st0" d="M197.2,201.6v-15.2h3.7v15.2H197.2z"/>
			<path class="st0" d="M216.6,201.6l-0.8-2.6h-5.5l-0.8,2.6h-3.9l5.3-15.2h4.5l5.3,15.2H216.6z M211.2,196.2h3.6l-1.8-5.4
				L211.2,196.2z"/>
		</g>
	</g>
	<g>
		<polygon class="st0" points="58.2,223.9 43.9,87.1 149.9,45.4 149.9,29.7 28.1,77.6 44.4,232.6 		"/>
		<polygon class="st0" points="154.1,29.7 154.1,45.4 260.1,87.1 245.8,223.9 259.6,232.6 275.9,77.6 		"/>
		<polygon class="st0" points="257.3,236.1 243.5,227.4 152,283.4 60.5,227.4 46.7,236.1 152,300.5 		"/>
	</g>
</g>
</svg>
