<?xml version="1.0" encoding="utf-8"?>
<!-- Generator: Adobe Illustrator 21.0.0, SVG Export Plug-In . SVG Version: 6.00 Build 0)  -->
<svg version="1.1" id="Layer_1" xmlns="http://www.w3.org/2000/svg" xmlns:xlink="http://www.w3.org/1999/xlink" x="0px" y="0px"
	 viewBox="0 0 400 400" style="enable-background:new 0 0 400 400;" xml:space="preserve">
<style type="text/css">
	.st0{fill-rule:evenodd;clip-rule:evenodd;fill:#432057;}
	.st1{fill-rule:evenodd;clip-rule:evenodd;fill:#FFFFFF;}
</style>
<rect class="st0" width="400" height="400"/>
<path class="st1" d="M258.7,140.8c-8.8,5.8-43,29-53.5,37.3v99.3c9-1.5,77.3,7.5,77.3,31.6c0,6-6,13.5-13.5,17.3
	c-2.3,0.8-4.5,3-6.8,3.8c-24,9.8-42.8,11.3-65.3,11.3l-25.5-0.8c-1.5-0.8-60-7.5-60-31.6c0-6,6.8-13.5,12.8-16.5
	c10.5-6,24-10.5,34.5-12c8.3-1.5,16.1-2.8,24.8-2.8v-84.5c0,0-0.8-0.8-1.5-0.8l-71.3,45.9c-15-7.5-21.8-21.8-21.8-31.6v-3.8
	l51.8-33.8c16.5-11.3,87.5-57.4,93.8-61C244.2,108.1,260,131.7,258.7,140.8z M326,105.9c0,24.1-20.3,45.1-43.5,45.1
	c-3.8,0-30.8-45.1-40.5-60.9v-2.3c0-9.8,22-23.2,27.8-24.8c3.5-1,10.3-2.3,11.8-2.3C307,60.8,326,81.8,326,105.9z"/>
</svg>
