<svg id="Capa_1" data-name="Capa 1" xmlns="http://www.w3.org/2000/svg" viewBox="0 0 800 800"><defs><style>.cls-1{fill:#fff;}</style></defs><title>LOGO YUXI GLOBAL</title><path class="cls-1" d="M242.06,256.22c-14.12,6.4-111.67,63.49-111.67,63.49s25.16,14.73,29.14,17.09c3.26,1.93,7.47,3,16.42-2.14s60.6-33.3,66.13-36.32,18.09-6.28,29.93,0c15.55,8.2,65.63,36.57,65.63,36.57s9.63,5.87,20.19.31l25.88-15.27S278.43,258.84,272,256a37.53,37.53,0,0,0-14.93-3.1,34.7,34.7,0,0,0-15,3.3"/><path class="cls-1" d="M126.62,456.24A36.51,36.51,0,0,0,141.73,482c12.59,9,111,65,111,65s-.08-29.15,0-33.78c0-3.79-1.07-8-10-13.16s-59.41-35.08-64.8-38.36-14.17-13.34-14.68-26.72c-.66-17.57-.39-75-.39-75,.06-8.12-2.64-12.18-7.62-15.25L126.1,327.65s-.27,121.56.52,128.59"/><path class="cls-1" d="M358.88,344.77c-5,3.07-7.69,7.13-7.62,15.25,0,0,.27,57.48-.39,75-.5,13.38-9.29,23.44-14.68,26.72s-56,33.23-64.79,38.36-10,9.38-10,13.16c.06,4.63,0,33.78,0,33.78s98.38-56,111-65a36.52,36.52,0,0,0,15.11-25.8c.79-7,.52-128.59.52-128.59Z"/><path class="cls-1" d="M172.14,355.85s57.67,32.41,66.47,37.69,14.1,7.38,14.1,24.29v77.4l-28-16.53c-3.19-1.9-6.47-6.34-6.76-13.2-.16-3.76.69-41.56-1.17-46.87-1.8-5.15-10.23-11.55-12.62-13.07-12.47-7.92-24.69-14.28-27.72-16.28s-4.25-3.3-4.25-7.63Z"/><path class="cls-1" d="M342,355.85s-57.67,32.41-66.47,37.69-14.1,7.38-14.1,24.29v77.4l28-16.53c3.19-1.9,6.47-6.34,6.76-13.2.16-3.76-.69-41.56,1.17-46.87,1.8-5.15,10.23-11.55,12.62-13.07,12.47-7.92,24.69-14.28,27.72-16.28S342,386,342,381.64Z"/><path class="cls-1" d="M444.54,528.19a21.77,21.77,0,0,1-8.91-1.65,13.54,13.54,0,0,1-5.85-4.83,21.85,21.85,0,0,1-3.12-7.34,42.65,42.65,0,0,1-1-9.63V482.27a45.43,45.43,0,0,1,.64-8,24.47,24.47,0,0,1,2.11-6.53,14.76,14.76,0,0,1,3.82-4.94,16.79,16.79,0,0,1,5.87-3,27.8,27.8,0,0,1,8.15-1.08,30.05,30.05,0,0,1,7.9.94,17.47,17.47,0,0,1,5.73,2.61,13.41,13.41,0,0,1,3.74,4.18,18.33,18.33,0,0,1,2.07,5.46,32.25,32.25,0,0,1,.62,6.63v4.28H451.52v-5.42c0-1,0-1.88-.07-2.53a13.26,13.26,0,0,0-.33-2.16,4.59,4.59,0,0,0-.79-1.84,4.14,4.14,0,0,0-1.48-1.12,5.42,5.42,0,0,0-2.38-.47,5.26,5.26,0,0,0-2.46.53,4.38,4.38,0,0,0-1.56,1.29,5.87,5.87,0,0,0-.84,2,13,13,0,0,0-.37,2.31c0,.69-.06,1.55-.06,2.55v31a14,14,0,0,0,1.22,6.39q1.22,2.34,4.45,2.34,6,0,6-9V501h-6.2v-8.93h19.9v36.13h-9.76l-1.16-6.65Q452.56,528.19,444.54,528.19Z"/><path class="cls-1" d="M472.88,528.17V458.65H488v59.26h15.72v10.26Z"/><path class="cls-1" d="M526.74,528.19A28.29,28.29,0,0,1,517,526.7a14.47,14.47,0,0,1-6.41-4.45,18.56,18.56,0,0,1-3.44-7,37.36,37.36,0,0,1-1.05-9.43v-25a37.36,37.36,0,0,1,1.05-9.45,18.35,18.35,0,0,1,3.44-6.91,14.37,14.37,0,0,1,6.41-4.41,28.61,28.61,0,0,1,9.74-1.46q11.12,0,15.94,5.61t4.82,16.63v25q0,11-4.82,16.67T526.74,528.19Zm-2.34-11.06a5.13,5.13,0,0,0,2.34.49,5.52,5.52,0,0,0,2.36-.47,4.06,4.06,0,0,0,1.53-1.18,5.37,5.37,0,0,0,.84-1.86,12.31,12.31,0,0,0,.4-2.14c.05-.66.08-1.46.08-2.38V477.14c0-.9,0-1.68-.08-2.34a11.93,11.93,0,0,0-.4-2.13,5.19,5.19,0,0,0-.84-1.82,4.14,4.14,0,0,0-1.53-1.16,5.43,5.43,0,0,0-2.36-.47,5.3,5.3,0,0,0-2.34.47,4.19,4.19,0,0,0-1.51,1.14,4.73,4.73,0,0,0-.83,1.83,11.94,11.94,0,0,0-.36,2.1c0,.63-.06,1.42-.06,2.37v32.44c0,.95,0,1.75.06,2.38a12,12,0,0,0,.36,2.13,4.9,4.9,0,0,0,.83,1.85A4.2,4.2,0,0,0,524.4,517.13Z"/><path class="cls-1" d="M553.29,528.17V458.65h17.87a52.62,52.62,0,0,1,6.85.4,25,25,0,0,1,6,1.57,12.67,12.67,0,0,1,8,8.43,21.57,21.57,0,0,1,1,7.21v.59q-.17,12.16-10.05,14a12.73,12.73,0,0,1,9,5q3.1,4.24,3.18,11.7V508q0,10.19-5.25,15.14-5.37,5-15.47,5Zm15.13-41.72h2.9q4.88,0,6.64-2.22t1.76-7q0-8.22-8.89-8.22h-2.4Zm0,31h3.18q4.92,0,6.91-2.43c1.32-1.63,2-4.18,2-7.68q0-5.87-2-8.3t-7.07-2.43h-3Z"/><path class="cls-1" d="M595.84,528.17l13-69.52h17.12l12.9,69.52h-14l-2.36-14.76h-10l-2.32,14.76Zm18-23.94h7.32l-3.68-26.92Z"/><path class="cls-1" d="M643.09,528.17V458.65h15.14v59.26h15.72v10.26Z"/><path class="cls-1" d="M427.27,443.59V391.72l-24.18-75h26.4l12.09,40.17,10.94-40.17H478l-23.87,75v51.87Z"/><path class="cls-1" d="M521.81,443.47a57.5,57.5,0,0,1-15.11-1.77,30.93,30.93,0,0,1-10.71-5,24.28,24.28,0,0,1-6.89-8.41,39.6,39.6,0,0,1-3.71-11.38,86.49,86.49,0,0,1-1.07-14.51V316.74H512v89.71q0,2.94.15,5a28.37,28.37,0,0,0,.73,4.49,12.76,12.76,0,0,0,1.57,4,7.67,7.67,0,0,0,2.87,2.56,9.25,9.25,0,0,0,4.48,1,9,9,0,0,0,4.44-1,7.75,7.75,0,0,0,2.83-2.56,12.76,12.76,0,0,0,1.57-4,28.78,28.78,0,0,0,.73-4.52q.15-2.11.15-5V316.74H559.3v85.64a75.29,75.29,0,0,1-1.8,17.72,33.62,33.62,0,0,1-6,12.74,24.55,24.55,0,0,1-11.55,8Q532.6,443.47,521.81,443.47Z"/><path class="cls-1" d="M564.55,443.59l24.71-68.4-23.64-58.45h26.55L606,351l11.17-34.28h23.57l-22.26,65.72,24.64,61.13H616.88l-15.38-37.8-13.7,37.8Z"/><path class="cls-1" d="M647.11,443.59V316.74h26.84V443.59Z"/><rect class="cls-1" x="482.27" y="271.81" width="2.01" height="30.06"/><path class="cls-1" d="M495.34,280.06a6.56,6.56,0,0,0-5.06,2.61v-2.62h-2v21.81h2V283.94a8.73,8.73,0,0,1,2-1.7,4.29,4.29,0,0,1,2.16-.64,2,2,0,0,1,1.68.75,4.47,4.47,0,0,1,.57,2.62v16.89h2V284.76a5.63,5.63,0,0,0-1-3.56A3,3,0,0,0,495.34,280.06Z"/><path class="cls-1" d="M510.7,293.25a13.31,13.31,0,0,0-1.18-1.34q-.54-.52-1.46-1.3l-2.55-2.23a7,7,0,0,1-1.75-1.95,4.52,4.52,0,0,1-.44-2.11,2.57,2.57,0,0,1,.86-2.07,3.43,3.43,0,0,1,2.29-.73q3.15,0,3.3,4.52l1.47-.43a6.58,6.58,0,0,0-1.31-4.09,4.36,4.36,0,0,0-3.54-1.46,5.06,5.06,0,0,0-3.56,1.21,4.33,4.33,0,0,0-1.31,3.36,5.26,5.26,0,0,0,.73,2.75A10.47,10.47,0,0,0,504.6,290l2.48,2.07q3.14,2.61,3.14,5a3.32,3.32,0,0,1-.91,2.49,3.42,3.42,0,0,1-2.5.88q-3.76,0-4.13-5.05l-1.67.48a7.18,7.18,0,0,0,1.72,4.43,5.17,5.17,0,0,0,4,1.61,5.5,5.5,0,0,0,3.84-1.29A4.58,4.58,0,0,0,512,297a6.73,6.73,0,0,0-.33-2A5.75,5.75,0,0,0,510.7,293.25Z"/><path class="cls-1" d="M524.18,282.46a3.81,3.81,0,0,0-1.49-1.8,4.54,4.54,0,0,0-2.42-.6,5.06,5.06,0,0,0-4.08,2.1V280.4h-2v28.09h2v-8.67a5,5,0,0,0,3.9,2,4,4,0,0,0,3.91-2.2q1.11-2.2,1.11-6.84v-4.05a27,27,0,0,0-.21-3.62A10.63,10.63,0,0,0,524.18,282.46Zm-1.08,10.43a17.51,17.51,0,0,1-.63,5.76,2.57,2.57,0,0,1-2.62,1.7,4.77,4.77,0,0,1-3.66-1.87v-15a5.12,5.12,0,0,1,3.68-1.93,2.56,2.56,0,0,1,2.64,1.6,17.16,17.16,0,0,1,.59,5.6Z"/><rect class="cls-1" x="528.41" y="274.17" width="1.97" height="3.43"/><path class="cls-1" d="M541.51,280.05a5.52,5.52,0,0,0-2.76.81,6.39,6.39,0,0,0-2.27,2.25v-3.06h-2v21.81h2V284.73a5.09,5.09,0,0,1,4.59-2.71,2.53,2.53,0,0,1,.8.11v-2.06h-.36Z"/><path class="cls-1" d="M554.16,288.47q0-4.61-1.16-6.51t-4.12-1.9a8,8,0,0,0-1.89.2,4.25,4.25,0,0,0-1.51.72,3.85,3.85,0,0,0-1.16,1.41,8.52,8.52,0,0,0-.7,2.31,19.54,19.54,0,0,0-.25,3.37v5.64a20.26,20.26,0,0,0,.24,3.36,8.86,8.86,0,0,0,.69,2.34,4.14,4.14,0,0,0,2.66,2.24,7.22,7.22,0,0,0,1.89.22,4.84,4.84,0,0,0,4.08-1.58,7.29,7.29,0,0,0,1.21-4.51V294.4H552.2V296a8.5,8.5,0,0,1-.21,2,4.15,4.15,0,0,1-.51,1.3,2.23,2.23,0,0,1-.8.71,3.11,3.11,0,0,1-.9.33,5.58,5.58,0,0,1-1,.07,2.83,2.83,0,0,1-2.69-1.41c-.53-.94-.75-2.65-.75-5.14v-3.37h8.74Zm-2,.86h-6.82v-1.59a14.65,14.65,0,0,1,.37-3.86,3.24,3.24,0,0,1,1.12-1.86,3.56,3.56,0,0,1,2-.49,3.44,3.44,0,0,1,1.49.29,2.56,2.56,0,0,1,1,.77,3.55,3.55,0,0,1,.55,1.31,10.06,10.06,0,0,1,.25,1.68q.05.84.06,2.11Z"/><path class="cls-1" d="M585.59,293.24a13.3,13.3,0,0,0-1.18-1.34q-.54-.52-1.46-1.3l-2.55-2.23a7,7,0,0,1-1.75-1.94,4.51,4.51,0,0,1-.44-2.1,2.57,2.57,0,0,1,.86-2.07,3.43,3.43,0,0,1,2.29-.73q3.15,0,3.3,4.51l1.47-.43a6.57,6.57,0,0,0-1.31-4.08,4.36,4.36,0,0,0-3.54-1.46,5.06,5.06,0,0,0-3.56,1.2,4.32,4.32,0,0,0-1.31,3.36,5.25,5.25,0,0,0,.73,2.75,10.46,10.46,0,0,0,2.37,2.57L582,292q3.14,2.6,3.14,5a3.31,3.31,0,0,1-.91,2.49,3.43,3.43,0,0,1-2.5.88q-3.76,0-4.13-5l-1.67.48a7.17,7.17,0,0,0,1.72,4.42,5.17,5.17,0,0,0,4,1.61,5.5,5.5,0,0,0,3.84-1.28,4.57,4.57,0,0,0,1.41-3.57,6.71,6.71,0,0,0-.33-2A5.75,5.75,0,0,0,585.59,293.24Z"/><path class="cls-1" d="M598.37,282.12a3.7,3.7,0,0,0-1.67-1.56,6.17,6.17,0,0,0-2.64-.5q-3.06,0-4.23,1.94t-1.17,6.11v5.71q0,4.19,1.16,6.12t4.24,1.93q3.08,0,4.24-1.93a12.23,12.23,0,0,0,1.2-6.12v-5.72a20.84,20.84,0,0,0-.28-3.5A7.55,7.55,0,0,0,598.37,282.12Zm-.88,11.77c0,.76,0,1.4,0,1.91s-.07,1-.15,1.58a4.74,4.74,0,0,1-.36,1.31,3.83,3.83,0,0,1-.61.92,2.11,2.11,0,0,1-.94.61,4.84,4.84,0,0,1-2.66,0,2.11,2.11,0,0,1-.94-.61,3.76,3.76,0,0,1-.61-.92,4.66,4.66,0,0,1-.36-1.31,15.35,15.35,0,0,1-.11-1.57c0-.51,0-1.16,0-1.92V288c0-.92,0-1.66.06-2.25a11.12,11.12,0,0,1,.21-1.78,3.77,3.77,0,0,1,.56-1.38,2.58,2.58,0,0,1,1-.8,4.16,4.16,0,0,1,3.12,0,2.59,2.59,0,0,1,1,.8,3.81,3.81,0,0,1,.56,1.38,11.11,11.11,0,0,1,.25,1.77q.05.89.06,2.26Z"/><path class="cls-1" d="M646,282.13a3.71,3.71,0,0,0-1.67-1.56,6.16,6.16,0,0,0-2.64-.5q-3.06,0-4.23,1.94t-1.17,6.12v5.72q0,4.2,1.16,6.13t4.24,1.93q3.08,0,4.24-1.93a12.25,12.25,0,0,0,1.2-6.12v-5.72a20.88,20.88,0,0,0-.28-3.5A7.56,7.56,0,0,0,646,282.13Zm-.88,11.78c0,.76,0,1.4,0,1.91s-.07,1-.15,1.58a4.75,4.75,0,0,1-.36,1.31,3.84,3.84,0,0,1-.61.92,2.11,2.11,0,0,1-.94.61,4.84,4.84,0,0,1-2.66,0,2.11,2.11,0,0,1-.94-.61,3.77,3.77,0,0,1-.61-.92,4.67,4.67,0,0,1-.36-1.31,15.38,15.38,0,0,1-.11-1.57c0-.51,0-1.16,0-1.92V288c0-.92,0-1.66.06-2.25a11.14,11.14,0,0,1,.21-1.78,3.77,3.77,0,0,1,.56-1.39,2.58,2.58,0,0,1,1-.8,4.15,4.15,0,0,1,3.12,0,2.59,2.59,0,0,1,1,.8,3.82,3.82,0,0,1,.56,1.39,11.13,11.13,0,0,1,.25,1.77q.05.89.06,2.26Z"/><rect class="cls-1" x="602.65" y="271.81" width="2.03" height="30.06"/><path class="cls-1" d="M616.82,297.77a9.5,9.5,0,0,1-2.22,1.9,4.38,4.38,0,0,1-2.26.69,1.88,1.88,0,0,1-1.63-.71,4.35,4.35,0,0,1-.57-2.58v-17l-2,0v17.2a5.49,5.49,0,0,0,.92,3.51,3,3,0,0,0,2.46,1.12,5.82,5.82,0,0,0,2.85-.75,8.27,8.27,0,0,0,2.43-2.07v2.82h2.06V280.05h-2Z"/><path class="cls-1" d="M625.29,274.17h-2v5.89h-2.81v2h2.81v15.34a14.22,14.22,0,0,0,.06,1.43,5.4,5.4,0,0,0,.27,1.21,2.46,2.46,0,0,0,.58,1,2.77,2.77,0,0,0,1,.6,4.29,4.29,0,0,0,1.5.23,7.62,7.62,0,0,0,2-.25v-1.47a9.68,9.68,0,0,1-1.58.18,1.42,1.42,0,0,1-1.43-.66,5.56,5.56,0,0,1-.4-2.47V282.1h3.59v-2h-3.64Z"/><rect class="cls-1" x="631.17" y="280.05" width="2.01" height="21.81"/><rect class="cls-1" x="631.17" y="274.17" width="2.05" height="3.43"/><path class="cls-1" d="M673.62,295a5.75,5.75,0,0,0-1-1.75,13.31,13.31,0,0,0-1.18-1.34q-.54-.52-1.46-1.3l-2.55-2.23a7,7,0,0,1-1.75-1.95,4.52,4.52,0,0,1-.44-2.11,2.57,2.57,0,0,1,.86-2.07,3.43,3.43,0,0,1,2.29-.73q3.15,0,3.3,4.52l1.47-.43a6.58,6.58,0,0,0-1.31-4.09,4.36,4.36,0,0,0-3.54-1.46,5.06,5.06,0,0,0-3.56,1.21,4.33,4.33,0,0,0-1.31,3.36,5.26,5.26,0,0,0,.73,2.75,10.47,10.47,0,0,0,2.37,2.57L669,292q3.14,2.61,3.14,5a3.32,3.32,0,0,1-.91,2.49,3.42,3.42,0,0,1-2.5.88q-3.76,0-4.13-5.05l-1.67.48a7.18,7.18,0,0,0,1.72,4.43,5.17,5.17,0,0,0,4,1.61,5.5,5.5,0,0,0,3.84-1.29,4.58,4.58,0,0,0,1.41-3.57A6.73,6.73,0,0,0,673.62,295Z"/><path class="cls-1" d="M657,280.06a6.56,6.56,0,0,0-5.06,2.61v-2.62h-2v21.81h2V283.94a8.73,8.73,0,0,1,2-1.7,4.29,4.29,0,0,1,2.16-.64,2,2,0,0,1,1.68.75,4.47,4.47,0,0,1,.57,2.62v16.89h2V284.76a5.63,5.63,0,0,0-1-3.56A3,3,0,0,0,657,280.06Z"/><polygon class="cls-1" points="528.41 280.06 528.41 301.87 530.38 301.87 530.42 301.87 530.42 280.06 530.38 280.06 528.41 280.06"/><path class="cls-1" d="M565.34,271.81v10.1a4.9,4.9,0,0,0-3.87-1.85c-1.89,0-3.17.64-3.88,2.09s-1.06,3.75-1.06,6.91v3.78q0,4.88,1.14,7a4.07,4.07,0,0,0,3.9,2.09,4.83,4.83,0,0,0,3.77-1.92v1.92h2V271.81h-2Zm-3.48,28.56a2.62,2.62,0,0,1-2.66-1.68,16.57,16.57,0,0,1-.66-5.7v-4.41a16.29,16.29,0,0,1,.62-5.51,2.56,2.56,0,0,1,2.63-1.58,5.17,5.17,0,0,1,3.55,1.81v15.3A4.68,4.68,0,0,1,561.86,300.37Z"/></svg>