<?xml version="1.0" encoding="utf-8"?>
<!-- Generator: Adobe Illustrator 21.0.0, SVG Export Plug-In . SVG Version: 6.00 Build 0)  -->
<svg version="1.1" id="Layer_1" xmlns="http://www.w3.org/2000/svg" xmlns:xlink="http://www.w3.org/1999/xlink" x="0px" y="0px"
	 viewBox="0 0 400 400" style="enable-background:new 0 0 400 400;" xml:space="preserve">
<style type="text/css">
	.st0{fill-rule:evenodd;clip-rule:evenodd;fill:#432057;}
	.st1{fill-rule:evenodd;clip-rule:evenodd;fill:#FFFFFF;}
</style>
<rect class="st0" width="400" height="400"/>
<path class="st1" d="M94.8,258c10.7,6.8,18,19.1,21.4,28.1c7.9-18,58-28.1,74.3-28.1H326v7.3c-1.1,5.1-2.8,10.1-3.9,14.6
	c-5.1,20.3-42.8,28.7-58.5,28.7H140.3c-2.8-0.6-6.2-1.1-8.4-1.1c-18-2.3-46.7-3.9-56.3-30.4c-1.1-3.4-2.3-10.1-2.3-11.3V258H94.8z
	 M185.9,201c6.2,2.3,11.8,9,17.4,9c5.6,0,7.9-4.5,15.2-4.5c14.1,0,17.4,18.5,38.3,18.5c14.1,0,30.9-11.3,44.5-23h17.4
	c20.8,6.3,19.1,13.6,19.1,22.6c0,3.6-0.6,8.1-2.3,12.2c-1.1,3.6-11.8,10.8-16.9,10.8H80.1c-5.6,0-18-8.6-18-13.6v-18.5
	c1.1-6.3,11.8-14,19.1-13.6H185.9z M324.3,173.4c5.6,0,7.9,5.6,7.9,7.9c0,3.9-3.9,9-8.4,9H75.1c-7.3-2.3-7.3-5.1-7.3-9
	c0-5.1,0-5.1,6.8-7.9H324.3z M127,134.3c-1.9,2.8-3.8,3.8-5.7,3.8c-2.8,0-14.2-3.8-16.1-6.6v-2.8c1.9-0.9,2.8-0.9,4.7-0.9
	C113.7,127.7,124.2,128.6,127,134.3z M298.3,142.8v3.2h-9.5c-2.4-0.8-5.5-2.4-8.7-4.7v-2.4c1.6-0.8,2.4-0.8,4.7-0.8
	C288.8,138,291.2,138,298.3,142.8z M185,130.4v2.7c-3.7,2.7-11,5.5-15.5,5.5c-1.8,0-3.7,0-5.5-0.9V135c5.5-5.5,9.1-5.5,14.6-5.5
	C180.4,129.5,183.2,129.5,185,130.4z M260.5,106.9c-1.6,2.4-7.2,4.8-10.5,4.8c-2.4,0-5.6-0.8-8.9-2.4v-2.4c3.2-1.6,8-2.4,9.7-2.4
	C253.2,104.5,257.2,105.3,260.5,106.9z M241.3,128.2c-1.6,2.3-7.8,4.7-9.3,4.7c-2.3,0-8.5-2.3-9.3-3.1c1.6-4.7,4.7-3.9,9.3-3.9
	C233.5,125.9,238.1,126.6,241.3,128.2z M187.9,100.7c0,0.8-0.8,2.4-1.6,2.4c-2.4,1.6-6.5,2.4-8.9,2.4c-1.6,0-5.7-1.6-8.9-3.2
	c1.6-4.8,4.8-4,9.7-4C179.8,98.2,184.6,99,187.9,100.7z M214.1,76.3c36.6,3.9,87.8,15.8,108,63.6c1.7,3.9,3.9,11.8,3.9,13.5v6.8
	H73.4v-6.8c9-54,73.7-74.8,111.4-77.1H214.1z"/>
</svg>
