<?xml version="1.0" encoding="utf-8"?>
<!-- Generator: Adobe Illustrator 20.1.0, SVG Export Plug-In . SVG Version: 6.00 Build 0)  -->
<svg version="1.1" id="Capa_1" xmlns="http://www.w3.org/2000/svg" xmlns:xlink="http://www.w3.org/1999/xlink" x="0px" y="0px"
	 viewBox="0 0 577 307.8" style="enable-background:new 0 0 577 307.8;" xml:space="preserve">
<style type="text/css">
	.st0{fill:#FFFFFF;}
</style>
<title>LOGO YUXI GLOBAL</title>
<path class="st0" d="M124.1,9C109.9,15.4,12.4,72.5,12.4,72.5s25.2,14.7,29.1,17.1c3.3,1.9,7.5,3,16.4-2.1s60.6-33.3,66.1-36.3
	s18.1-6.3,29.9,0c15.5,8.2,65.6,36.6,65.6,36.6s9.6,5.9,20.2,0.3l25.9-15.3c0,0-105.3-61.1-111.7-63.9c-4.7-2-9.8-3.1-14.9-3.1
	C133.9,5.7,128.8,6.8,124.1,9"/>
<path class="st0" d="M8.6,209c1.1,10.3,6.6,19.7,15.1,25.8c12.6,9,111,65,111,65s-0.1-29.2,0-33.8c0-3.8-1.1-8-10-13.2
	s-59.4-35.1-64.8-38.4s-14.2-13.3-14.7-26.7c-0.7-17.6-0.4-75-0.4-75c0.1-8.1-2.6-12.2-7.6-15.2L8.1,80.4C8.1,80.4,7.8,202,8.6,209"
	/>
<path class="st0" d="M240.9,97.6c-5,3.1-7.7,7.1-7.6,15.2c0,0,0.3,57.5-0.4,75c-0.5,13.4-9.3,23.4-14.7,26.7s-56,33.2-64.8,38.4
	s-10,9.4-10,13.2c0.1,4.6,0,33.8,0,33.8s98.4-56,111-65c8.5-6,14-15.4,15.1-25.8c0.8-7,0.5-128.6,0.5-128.6L240.9,97.6z"/>
<path class="st0" d="M54.1,108.6c0,0,57.7,32.4,66.5,37.7s14.1,7.4,14.1,24.3V248l-28-16.5c-3.2-1.9-6.5-6.3-6.8-13.2
	c-0.2-3.8,0.7-41.6-1.2-46.9c-1.8-5.1-10.2-11.5-12.6-13.1c-12.5-7.9-24.7-14.3-27.7-16.3s-4.2-3.3-4.2-7.6L54.1,108.6z"/>
<path class="st0" d="M224,108.6c0,0-57.7,32.4-66.5,37.7s-14.1,7.4-14.1,24.3V248l28-16.5c3.2-1.9,6.5-6.3,6.8-13.2
	c0.2-3.8-0.7-41.6,1.2-46.9c1.8-5.1,10.2-11.5,12.6-13.1c12.5-7.9,24.7-14.3,27.7-16.3s4.3-3.3,4.3-7.6V108.6z"/>
<path class="st0" d="M326.5,281c-3.1,0.1-6.1-0.5-8.9-1.7c-2.4-1-4.4-2.7-5.9-4.8c-1.5-2.2-2.5-4.7-3.1-7.3c-0.7-3.2-1-6.4-1-9.6
	v-22.5c0-2.7,0.2-5.4,0.6-8c0.4-2.3,1.1-4.5,2.1-6.5c0.9-1.9,2.2-3.6,3.8-4.9c1.7-1.4,3.7-2.4,5.9-3c2.6-0.8,5.4-1.1,8.1-1.1
	c2.7,0,5.3,0.3,7.9,0.9c2.1,0.5,4,1.4,5.7,2.6c1.5,1.1,2.8,2.5,3.7,4.2c1,1.7,1.7,3.5,2.1,5.5c0.4,2.2,0.6,4.4,0.6,6.6v4.3h-14.8
	v-5.4c0-1,0-1.9-0.1-2.5c-0.1-0.7-0.2-1.5-0.3-2.2c-0.1-0.7-0.4-1.3-0.8-1.8c-0.4-0.5-0.9-0.9-1.5-1.1c-0.7-0.3-1.6-0.5-2.4-0.5
	c-0.9,0-1.7,0.2-2.5,0.5c-0.6,0.3-1.1,0.7-1.6,1.3c-0.4,0.6-0.7,1.3-0.8,2c-0.2,0.8-0.3,1.5-0.4,2.3c0,0.7-0.1,1.5-0.1,2.5v31
	c-0.1,2.2,0.3,4.4,1.2,6.4c0.8,1.6,2.3,2.3,4.5,2.3c4,0,6-3,6-9v-7.7h-6.2v-8.9h19.9V281h-9.8l-1.2-6.7
	C335.6,278.8,331.9,281,326.5,281z"/>
<path class="st0" d="M354.9,281v-69.5H370v59.3h15.7V281H354.9z"/>
<path class="st0" d="M408.7,281c-3.3,0.1-6.6-0.4-9.7-1.5c-2.5-0.9-4.7-2.4-6.4-4.5c-1.6-2.1-2.8-4.4-3.4-7c-0.7-3.1-1.1-6.3-1-9.4
	v-25c-0.1-3.2,0.3-6.4,1-9.5c0.6-2.5,1.8-4.9,3.4-6.9c1.7-2,3.9-3.6,6.4-4.4c3.1-1,6.4-1.5,9.7-1.5c7.4,0,12.7,1.9,15.9,5.6
	c3.2,3.7,4.8,9.3,4.8,16.6v25c0,7.3-1.6,12.9-4.8,16.7C421.5,279.1,416.2,281,408.7,281z M406.4,269.9c0.7,0.3,1.5,0.5,2.3,0.5
	c0.8,0,1.6-0.1,2.4-0.5c0.6-0.3,1.1-0.7,1.5-1.2c0.4-0.6,0.7-1.2,0.8-1.9c0.2-0.7,0.3-1.4,0.4-2.1c0-0.7,0.1-1.5,0.1-2.4v-32.5
	c0-0.9,0-1.7-0.1-2.3c-0.1-0.7-0.2-1.4-0.4-2.1c-0.2-0.7-0.4-1.3-0.8-1.8c-0.4-0.5-0.9-0.9-1.5-1.2c-0.7-0.3-1.5-0.5-2.4-0.5
	c-0.8,0-1.6,0.1-2.3,0.5c-0.6,0.3-1.1,0.6-1.5,1.1c-0.4,0.5-0.7,1.2-0.8,1.8c-0.2,0.7-0.3,1.4-0.4,2.1c0,0.6-0.1,1.4-0.1,2.4v32.4
	c0,1,0,1.8,0.1,2.4c0.1,0.7,0.2,1.4,0.4,2.1c0.1,0.7,0.4,1.3,0.8,1.8C405.3,269.2,405.8,269.6,406.4,269.9L406.4,269.9z"/>
<path class="st0" d="M435.3,281v-69.5h17.9c2.3,0,4.6,0.1,6.8,0.4c2.1,0.3,4.1,0.8,6,1.6c3.9,1.3,6.9,4.5,8,8.4
	c0.7,2.3,1.1,4.8,1,7.2v0.6c-0.1,8.1-3.5,12.8-10,14c3.6,0.3,6.8,2.1,9,5c2.1,2.8,3.1,6.7,3.2,11.7v0.5c0,6.8-1.8,11.8-5.2,15.1
	c-3.6,3.3-8.7,5-15.5,5L435.3,281z M450.4,239.2h2.9c3.3,0,5.5-0.7,6.6-2.2s1.8-3.8,1.8-7c0-5.5-3-8.2-8.9-8.2h-2.4L450.4,239.2z
	 M450.4,270.2h3.2c3.3,0,5.6-0.8,6.9-2.4c1.3-1.6,2-4.2,2-7.7c0-3.9-0.7-6.7-2-8.3c-1.3-1.6-3.7-2.4-7.1-2.4h-3L450.4,270.2z"/>
<path class="st0" d="M477.8,281l13-69.5H508l12.9,69.5h-14l-2.4-14.8h-10l-2.3,14.8H477.8z M495.8,257h7.3l-3.7-26.9L495.8,257z"/>
<path class="st0" d="M525.1,281v-69.5h15.1v59.3H556V281H525.1z"/>
<path class="st0" d="M309.3,196.4v-51.9l-24.2-75h26.4l12.1,40.2l10.9-40.2H360l-23.9,75v51.9L309.3,196.4z"/>
<path class="st0" d="M403.8,196.3c-5.1,0.1-10.2-0.5-15.1-1.8c-3.9-1-7.5-2.7-10.7-5c-2.9-2.2-5.3-5.1-6.9-8.4
	c-1.8-3.6-3.1-7.4-3.7-11.4c-0.8-4.8-1.1-9.7-1.1-14.5V69.5H394v89.7c0,2,0,3.6,0.2,5c0.1,1.5,0.4,3,0.7,4.5c0.3,1.4,0.8,2.8,1.6,4
	c0.7,1.1,1.7,2,2.9,2.6c1.4,0.7,2.9,1,4.5,1c1.5,0.1,3.1-0.3,4.4-1c1.1-0.6,2.1-1.5,2.8-2.6c0.7-1.2,1.3-2.6,1.6-4
	c0.4-1.5,0.6-3,0.7-4.5c0.1-1.4,0.2-3.1,0.2-5V69.5h27.8v85.6c0.1,6-0.5,11.9-1.8,17.7c-1.1,4.6-3.1,9-6,12.7c-3,3.7-7,6.5-11.5,8
	C417,195.4,411,196.3,403.8,196.3z"/>
<path class="st0" d="M446.5,196.4l24.7-68.4l-23.6-58.5h26.5l13.8,34.3l11.2-34.3h23.6l-22.3,65.7l24.6,61.1h-26.2l-15.4-37.8
	l-13.7,37.8L446.5,196.4z"/>
<path class="st0" d="M529.1,196.4V69.5H556v126.9H529.1z"/>
<rect x="364.3" y="24.6" class="st0" width="2" height="30.1"/>
<path class="st0" d="M377.3,32.8c-2,0.1-3.9,1-5.1,2.6v-2.6h-2v21.8h2V36.7c0.6-0.7,1.3-1.2,2-1.7c0.7-0.4,1.4-0.6,2.2-0.6
	c0.6,0,1.3,0.2,1.7,0.8c0.5,0.8,0.7,1.7,0.6,2.6v16.9h2V37.5c0.1-1.3-0.3-2.5-1-3.6C379.1,33.3,378.3,32.9,377.3,32.8z"/>
<path class="st0" d="M392.7,46c-0.4-0.5-0.8-0.9-1.2-1.3c-0.4-0.3-0.8-0.8-1.5-1.3l-2.5-2.2c-0.7-0.5-1.3-1.2-1.8-2
	c-0.3-0.7-0.5-1.4-0.4-2.1c0-0.8,0.3-1.5,0.9-2.1c0.7-0.5,1.5-0.8,2.3-0.7c2.1,0,3.2,1.5,3.3,4.5l1.5-0.4c0-1.5-0.4-2.9-1.3-4.1
	c-0.9-1-2.2-1.5-3.5-1.5c-1.3-0.1-2.6,0.4-3.6,1.2c-0.9,0.9-1.4,2.1-1.3,3.4c0,1,0.2,1.9,0.7,2.8c0.6,1,1.4,1.9,2.3,2.6l2.5,2.1
	c2.1,1.7,3.1,3.4,3.1,5c0.1,0.9-0.3,1.8-0.9,2.5c-0.7,0.6-1.6,0.9-2.5,0.9c-2.5,0-3.9-1.7-4.1-5l-1.7,0.5c0.1,1.6,0.7,3.2,1.7,4.4
	c1,1.1,2.5,1.7,4,1.6c1.4,0.1,2.8-0.4,3.8-1.3c1-0.9,1.5-2.3,1.4-3.6c0-0.7-0.1-1.4-0.3-2C393.5,47.2,393.1,46.6,392.7,46z"/>
<path class="st0" d="M406.2,35.2c-0.3-0.7-0.8-1.4-1.5-1.8c-0.7-0.4-1.6-0.6-2.4-0.6c-1.6,0-3.1,0.8-4.1,2.1v-1.8h-2v28.1h2v-8.7
	c0.9,1.2,2.4,2,3.9,2c1.6,0.1,3.2-0.7,3.9-2.2c0.7-1.5,1.1-3.7,1.1-6.8v-4c0-1.2-0.1-2.4-0.2-3.6C406.8,37,406.5,36.1,406.2,35.2z
	 M405.1,45.7c0.1,1.9-0.1,3.9-0.6,5.8c-0.4,1.1-1.5,1.8-2.6,1.7c-1.4,0-2.8-0.7-3.7-1.9v-15c0.9-1.1,2.2-1.8,3.7-1.9
	c1.1-0.1,2.2,0.5,2.6,1.6c0.5,1.8,0.7,3.7,0.6,5.6L405.1,45.7z"/>
<rect x="410.4" y="27" class="st0" width="2" height="3.4"/>
<path class="st0" d="M423.5,32.8c-1,0-1.9,0.3-2.8,0.8c-0.9,0.5-1.7,1.3-2.3,2.2v-3.1h-2v21.8h2V37.5c0.9-1.7,2.7-2.7,4.6-2.7
	c0.3,0,0.5,0,0.8,0.1v-2.1L423.5,32.8L423.5,32.8z"/>
<path class="st0" d="M436.2,41.3c0-3.1-0.4-5.2-1.2-6.5c-0.8-1.3-2.1-1.9-4.1-1.9c-0.6,0-1.3,0.1-1.9,0.2c-0.5,0.1-1.1,0.4-1.5,0.7
	c-0.5,0.4-0.9,0.9-1.2,1.4c-0.3,0.7-0.6,1.5-0.7,2.3c-0.2,1.1-0.3,2.2-0.2,3.4v5.6c0,1.1,0.1,2.2,0.2,3.4c0.1,0.8,0.4,1.6,0.7,2.3
	c0.5,1.1,1.5,1.9,2.7,2.2c0.6,0.2,1.3,0.2,1.9,0.2c1.5,0.2,3-0.4,4.1-1.6c0.9-1.3,1.3-2.9,1.2-4.5v-1.4h-1.9v1.6
	c0,0.7-0.1,1.3-0.2,2c-0.1,0.5-0.3,0.9-0.5,1.3c-0.2,0.3-0.5,0.5-0.8,0.7c-0.3,0.2-0.6,0.3-0.9,0.3c-0.3,0.1-0.7,0.1-1,0.1
	c-1.1,0.1-2.1-0.5-2.7-1.4c-0.5-0.9-0.8-2.6-0.8-5.1v-3.4h8.7L436.2,41.3z M434.2,42.1h-6.8v-1.6c0-1.3,0.1-2.6,0.4-3.9
	c0.1-0.7,0.5-1.4,1.1-1.9c0.6-0.4,1.3-0.5,2-0.5c0.5,0,1,0.1,1.5,0.3c0.4,0.2,0.7,0.4,1,0.8c0.3,0.4,0.5,0.8,0.5,1.3
	c0.1,0.6,0.2,1.1,0.2,1.7c0,0.6,0.1,1.3,0.1,2.1L434.2,42.1z"/>
<path class="st0" d="M467.6,46c-0.4-0.5-0.8-0.9-1.2-1.3c-0.4-0.3-0.8-0.8-1.5-1.3l-2.5-2.2c-0.7-0.5-1.3-1.2-1.8-1.9
	c-0.3-0.7-0.5-1.4-0.4-2.1c0-0.8,0.3-1.5,0.9-2.1c0.7-0.5,1.5-0.8,2.3-0.7c2.1,0,3.2,1.5,3.3,4.5l1.5-0.4c0-1.5-0.4-2.9-1.3-4.1
	c-0.9-1-2.2-1.5-3.5-1.5c-1.3-0.1-2.6,0.4-3.6,1.2c-0.9,0.9-1.4,2.1-1.3,3.4c0,1,0.2,1.9,0.7,2.8c0.6,1,1.4,1.9,2.4,2.6l2.5,2
	c2.1,1.7,3.1,3.4,3.1,5c0.1,0.9-0.3,1.8-0.9,2.5c-0.7,0.6-1.6,0.9-2.5,0.9c-2.5,0-3.9-1.7-4.1-5l-1.7,0.5c0.1,1.6,0.7,3.2,1.7,4.4
	c1,1.1,2.5,1.7,4,1.6c1.4,0.1,2.8-0.4,3.8-1.3c1-0.9,1.5-2.2,1.4-3.6c0-0.7-0.1-1.4-0.3-2C468.4,47.2,468,46.6,467.6,46z"/>
<path class="st0" d="M480.4,34.9c-0.4-0.7-1-1.2-1.7-1.6c-0.8-0.4-1.7-0.5-2.6-0.5c-2,0-3.4,0.6-4.2,1.9c-0.8,1.3-1.2,3.3-1.2,6.1
	v5.7c0,2.8,0.4,4.8,1.2,6.1c0.8,1.3,2.2,1.9,4.2,1.9s3.5-0.6,4.2-1.9c0.9-1.9,1.3-4,1.2-6.1v-5.7c0-1.2-0.1-2.3-0.3-3.5
	C481.1,36.5,480.8,35.7,480.4,34.9z M479.5,46.7c0,0.8,0,1.4,0,1.9s-0.1,1-0.2,1.6c-0.1,0.5-0.2,0.9-0.4,1.3
	c-0.2,0.3-0.4,0.6-0.6,0.9c-0.3,0.3-0.6,0.5-0.9,0.6c-0.9,0.2-1.8,0.2-2.7,0c-0.4-0.1-0.7-0.3-0.9-0.6c-0.2-0.3-0.5-0.6-0.6-0.9
	c-0.2-0.4-0.3-0.9-0.4-1.3c-0.1-0.5-0.1-1-0.1-1.6c0-0.5,0-1.2,0-1.9v-5.9c0-0.9,0-1.7,0.1-2.2c0-0.6,0.1-1.2,0.2-1.8
	c0.1-0.5,0.3-1,0.6-1.4c0.3-0.3,0.6-0.6,1-0.8c1-0.4,2.1-0.4,3.1,0c0.4,0.2,0.7,0.5,1,0.8c0.3,0.4,0.5,0.9,0.6,1.4
	c0.1,0.6,0.2,1.2,0.2,1.8c0,0.6,0.1,1.3,0.1,2.3L479.5,46.7z"/>
<path class="st0" d="M528,34.9c-0.4-0.7-1-1.2-1.7-1.6c-0.8-0.4-1.7-0.5-2.6-0.5c-2,0-3.5,0.6-4.2,1.9c-0.8,1.3-1.2,3.3-1.2,6.1v5.7
	c0,2.8,0.4,4.8,1.2,6.1c0.8,1.3,2.2,1.9,4.2,1.9s3.5-0.6,4.2-1.9c0.9-1.9,1.3-4,1.2-6.1v-5.7c0-1.2-0.1-2.3-0.3-3.5
	C528.7,36.5,528.4,35.7,528,34.9z M527.1,46.7c0,0.8,0,1.4,0,1.9s-0.1,1-0.2,1.6c-0.1,0.5-0.2,0.9-0.4,1.3c-0.2,0.3-0.4,0.6-0.6,0.9
	c-0.3,0.3-0.6,0.5-0.9,0.6c-0.9,0.2-1.8,0.2-2.7,0c-0.4-0.1-0.7-0.3-0.9-0.6c-0.2-0.3-0.5-0.6-0.6-0.9c-0.2-0.4-0.3-0.9-0.4-1.3
	c-0.1-0.5-0.1-1-0.1-1.6c0-0.5,0-1.2,0-1.9v-5.9c0-0.9,0-1.7,0.1-2.2c0-0.6,0.1-1.2,0.2-1.8c0.1-0.5,0.3-1,0.6-1.4
	c0.3-0.3,0.6-0.6,1-0.8c1-0.4,2.1-0.4,3.1,0c0.4,0.2,0.7,0.5,1,0.8c0.3,0.4,0.5,0.9,0.6,1.4c0.1,0.6,0.2,1.2,0.2,1.8
	c0,0.6,0.1,1.3,0.1,2.3L527.1,46.7z"/>
<rect x="484.7" y="24.6" class="st0" width="2" height="30.1"/>
<path class="st0" d="M498.8,50.6c-0.6,0.7-1.4,1.4-2.2,1.9c-0.7,0.4-1.5,0.7-2.3,0.7c-0.6,0.1-1.2-0.2-1.6-0.7
	c-0.5-0.8-0.7-1.7-0.6-2.6v-17h-2v17.2c-0.1,1.2,0.2,2.5,0.9,3.5c0.6,0.7,1.5,1.2,2.5,1.1c1,0,2-0.3,2.8-0.8
	c0.9-0.5,1.8-1.2,2.4-2.1v2.8h2.1V32.8h-2L498.8,50.6z"/>
<path class="st0" d="M507.3,27h-2v5.9h-2.8v2h2.8v15.3c0,0.5,0,1,0.1,1.4c0,0.4,0.1,0.8,0.3,1.2c0.1,0.4,0.3,0.7,0.6,1
	c0.3,0.3,0.6,0.5,1,0.6c0.5,0.2,1,0.2,1.5,0.2c0.7,0,1.3-0.1,2-0.2v-1.5c-0.5,0.1-1,0.2-1.6,0.2c-0.6,0.1-1.1-0.2-1.4-0.7
	c-0.3-0.8-0.5-1.6-0.4-2.5V34.9h3.6v-2h-3.6L507.3,27z"/>
<rect x="513.2" y="32.8" class="st0" width="2" height="21.8"/>
<rect x="513.2" y="27" class="st0" width="2" height="3.4"/>
<path class="st0" d="M555.6,47.8c-0.2-0.6-0.6-1.2-1-1.8c-0.4-0.5-0.8-0.9-1.2-1.3c-0.4-0.3-0.8-0.8-1.5-1.3l-2.5-2.2
	c-0.7-0.5-1.3-1.2-1.8-2c-0.3-0.7-0.5-1.4-0.4-2.1c0-0.8,0.3-1.5,0.9-2.1c0.7-0.5,1.5-0.8,2.3-0.7c2.1,0,3.2,1.5,3.3,4.5l1.5-0.4
	c0-1.5-0.4-2.9-1.3-4.1c-0.9-1-2.2-1.5-3.5-1.5c-1.3-0.1-2.6,0.4-3.6,1.2c-0.9,0.9-1.4,2.1-1.3,3.4c0,1,0.2,1.9,0.7,2.8
	c0.6,1,1.4,1.9,2.4,2.6l2.5,2.1c2.1,1.7,3.1,3.4,3.1,5c0.1,0.9-0.3,1.8-0.9,2.5c-0.7,0.6-1.6,0.9-2.5,0.9c-2.5,0-3.9-1.7-4.1-5
	l-1.7,0.5c0.1,1.6,0.7,3.2,1.7,4.4c1,1.1,2.5,1.7,4,1.6c1.4,0.1,2.8-0.4,3.8-1.3c1-0.9,1.5-2.2,1.4-3.6
	C555.9,49.1,555.8,48.4,555.6,47.8z"/>
<path class="st0" d="M539,32.8c-2,0.1-3.9,1-5.1,2.6v-2.6h-2v21.8h2V36.7c0.6-0.7,1.3-1.2,2-1.7c0.7-0.4,1.4-0.6,2.2-0.6
	c0.6,0,1.3,0.2,1.7,0.8c0.5,0.8,0.7,1.7,0.6,2.6v16.9h2V37.5c0.1-1.3-0.3-2.5-1-3.6C540.8,33.3,539.9,32.9,539,32.8z"/>
<polygon class="st0" points="410.4,32.8 410.4,54.7 412.4,54.7 412.4,54.7 412.4,32.8 412.4,32.8 "/>
<path class="st0" d="M447.3,24.6v10.1c-0.9-1.2-2.4-1.9-3.9-1.9c-1.9,0-3.2,0.6-3.9,2.1s-1.1,3.8-1.1,6.9v3.8c0,3.3,0.4,5.6,1.1,7
	c0.8,1.4,2.3,2.2,3.9,2.1c1.5,0,2.9-0.7,3.8-1.9v1.9h2V24.6H447.3L447.3,24.6z M443.9,53.2c-1.2,0.1-2.2-0.6-2.7-1.7
	c-0.5-1.8-0.8-3.8-0.7-5.7v-4.4c-0.1-1.9,0.1-3.7,0.6-5.5c0.4-1.1,1.5-1.7,2.6-1.6c1.4,0.1,2.7,0.8,3.5,1.8v15.3
	C446.5,52.5,445.2,53.1,443.9,53.2L443.9,53.2z"/>
<g id="Layer_2">
</g>
</svg>
